<?xml version="1.0" standalone="no"?><svg xmlns="http://www.w3.org/2000/svg" viewBox="0 0 1440 320"><path fill="#E3414B" fill-opacity="1" d="M0,256L0,128L65.5,128L65.5,320L130.9,320L130.9,160L196.4,160L196.4,96L261.8,96L261.8,96L327.3,96L327.3,128L392.7,128L392.7,64L458.2,64L458.2,64L523.6,64L523.6,224L589.1,224L589.1,192L654.5,192L654.5,64L720,64L720,224L785.5,224L785.5,160L850.9,160L850.9,64L916.4,64L916.4,256L981.8,256L981.8,96L1047.3,96L1047.3,128L1112.7,128L1112.7,0L1178.2,0L1178.2,64L1243.6,64L1243.6,160L1309.1,160L1309.1,128L1374.5,128L1374.5,128L1440,128L1440,320L1374.5,320L1374.5,320L1309.1,320L1309.1,320L1243.6,320L1243.6,320L1178.2,320L1178.2,320L1112.7,320L1112.7,320L1047.3,320L1047.3,320L981.8,320L981.8,320L916.4,320L916.4,320L850.9,320L850.9,320L785.5,320L785.5,320L720,320L720,320L654.5,320L654.5,320L589.1,320L589.1,320L523.6,320L523.6,320L458.2,320L458.2,320L392.7,320L392.7,320L327.3,320L327.3,320L261.8,320L261.8,320L196.4,320L196.4,320L130.9,320L130.9,320L65.5,320L65.5,320L0,320L0,320Z"></path></svg>