<svg width="100%" height="100%" id="svg" viewBox="0 0 1440 600" xmlns="http://www.w3.org/2000/svg" class="transition duration-300 ease-in-out delay-150"><defs><linearGradient id="gradient" x1="13%" y1="16%" x2="87%" y2="84%"><stop offset="5%" stop-color="#e3414b66"></stop><stop offset="95%" stop-color="#8f272e66"></stop></linearGradient></defs><path d="M 0,600 C 0,600 0,150 0,150 C 43.7297500427034,127.23461348668603 87.4595000854068,104.46922697337206 124,102 C 160.5404999145932,99.53077302662794 189.89174970107615,117.35770559319784 225,124 C 260.10825029892385,130.64229440680216 300.9735011102887,126.09995065383666 346,120 C 391.0264988897113,113.90004934616334 440.21424585776924,106.24249179145552 486,114 C 531.7857541422308,121.75750820854448 574.1695154586345,144.93008218034123 605,138 C 635.8304845413655,131.06991781965877 655.1076923076923,94.03717948717949 700,101 C 744.8923076923077,107.96282051282051 815.3997153105962,158.9211998709408 857,165 C 898.6002846894038,171.0788001290592 911.293446449923,132.2780210290573 946,112 C 980.706553550077,91.72197897094271 1037.4264988897114,89.96671601283 1084,116 C 1130.5735011102886,142.03328398717 1167.0005579912315,195.85511491962268 1203,189 C 1238.9994420087685,182.14488508037732 1274.5712691453625,114.61282430867924 1314,98 C 1353.4287308546375,81.38717569132076 1396.7143654273186,115.69358784566037 1440,150 C 1440,150 1440,600 1440,600 Z" stroke="none" stroke-width="0" fill="url(#gradient)" class="transition-all duration-300 ease-in-out delay-150 path-0"></path><defs><linearGradient id="gradient" x1="13%" y1="16%" x2="87%" y2="84%"><stop offset="5%" stop-color="#e3414b88"></stop><stop offset="95%" stop-color="#8f272e88"></stop></linearGradient></defs><path d="M 0,600 C 0,600 0,300 0,300 C 50.49114426161057,264.54603997039226 100.98228852322114,229.09207994078457 134,245 C 167.01771147677886,260.9079200592154 182.56199016872597,328.1777202072539 222,334 C 261.43800983127403,339.8222797927461 324.76975080187515,284.19703923019983 373,261 C 421.23024919812485,237.80296076980014 454.35900662377355,247.0341228719467 493,248 C 531.6409933762264,248.9658771280533 575.794222703031,241.66646928201334 616,260 C 656.205777296969,278.33353071798666 692.4641025641026,322.3 724,319 C 755.5358974358974,315.7 782.3493670405586,265.1335307179867 821,263 C 859.6506329594414,260.8664692820133 910.1384292736625,307.16587712805324 958,313 C 1005.8615707263375,318.83412287194676 1051.0969158647918,284.2029607698002 1090,276 C 1128.9030841352082,267.7970392301998 1161.4739072671714,286.0222797927461 1200,306 C 1238.5260927328286,325.9777202072539 1283.0074550665224,347.7079200592154 1324,347 C 1364.9925449334776,346.2920799407846 1402.496272466739,323.1460399703923 1440,300 C 1440,300 1440,600 1440,600 Z" stroke="none" stroke-width="0" fill="url(#gradient)" class="transition-all duration-300 ease-in-out delay-150 path-1"></path><defs><linearGradient id="gradient" x1="13%" y1="16%" x2="87%" y2="84%"><stop offset="5%" stop-color="#e3414bff"></stop><stop offset="95%" stop-color="#8f272eff"></stop></linearGradient></defs><path d="M 0,600 C 0,600 0,450 0,450 C 44.69003207500616,476.9204805557137 89.38006415001232,503.8409611114274 132,490 C 174.61993584998768,476.1590388885726 215.16977547495685,421.556636110004 255,415 C 294.83022452504315,408.443363889996 333.94083395016037,449.9324944485566 369,457 C 404.05916604983963,464.0675055514434 435.0668887244017,436.7133860957695 472,431 C 508.9331112755983,425.2866139042305 551.7916111522329,441.21396116836524 597,439 C 642.2083888477671,436.78603883163476 689.7666666666665,416.4307692307692 736,411 C 782.2333333333335,405.5692307692308 827.1417221811005,415.0629619085578 860,437 C 892.8582778188995,458.9370380914422 913.6664446089319,493.3173831349998 944,489 C 974.3335553910681,484.6826168650002 1014.1924993831726,441.6675055514434 1059,431 C 1103.8075006168274,420.3324944485566 1153.5635578583767,442.0125946592268 1203,461 C 1252.4364421416233,479.9874053407732 1301.553269183321,496.2821158116495 1341,494 C 1380.446730816679,491.7178841883505 1410.2233654083395,470.8589420941753 1440,450 C 1440,450 1440,600 1440,600 Z" stroke="none" stroke-width="0" fill="url(#gradient)" class="transition-all duration-300 ease-in-out delay-150 path-2"></path></svg>